<?xml version="1.0" encoding="UTF-8"?>
<svg version="1.1" xmlns="http://www.w3.org/2000/svg" width="258" height="268">
<path d="M0 0 C85.14 0 170.28 0 258 0 C258 88.44 258 176.88 258 268 C172.86 268 87.72 268 0 268 C0 179.56 0 91.12 0 0 Z " fill="#615FF8" transform="translate(0,0)"/>
<path d="M0 0 C85.14 0 170.28 0 258 0 C258 88.44 258 176.88 258 268 C172.86 268 87.72 268 0 268 C0 201.67 0 135.34 0 67 C0.33 67 0.66 67 1 67 C1.05375793 67.54202057 1.10751587 68.08404114 1.16290283 68.64248657 C4.55072794 102.83690688 4.55072794 102.83690688 8.10287476 137.01452637 C9.25161898 147.80171599 10.37073954 158.59173668 11.47072601 169.38399887 C11.70044011 171.63697876 11.93051347 173.88992168 12.16070557 176.14285278 C12.31628473 177.66571039 12.47186334 179.18856806 12.62744141 180.71142578 C12.70503189 181.47083025 12.78262238 182.23023472 12.86256409 183.01265144 C13.24684868 186.77584166 13.63007517 190.53913389 14.01092529 194.30267334 C14.85178154 202.60735293 15.71149696 210.90961576 16.59991455 219.20935059 C16.86133124 221.68616901 17.11535625 224.16378176 17.36102295 226.64221191 C17.68947184 229.953854 18.04273984 233.26193067 18.40234375 236.5703125 C18.53425865 237.99596024 18.53425865 237.99596024 18.6688385 239.45040894 C19.54101486 247.06051661 22.22838993 252.80374014 28.0625 257.875 C33.41401209 261.74630662 37.13517779 262.31238654 43.73583984 262.22436523 C44.58418081 262.21769301 45.43252178 262.21102079 46.30657005 262.20414639 C53.60357334 262.09886483 60.7955105 261.51816569 68.04166794 260.66659355 C71.2181898 260.29377067 74.39740251 259.9461579 77.57643318 259.59547901 C79.37921215 259.39629403 81.18185556 259.19587893 82.98437309 258.99434185 C94.70608993 257.68663275 106.43971196 256.49320387 118.17220306 255.28684616 C124.29106239 254.65739847 130.40938665 254.02278103 136.52776957 253.38872266 C145.64202418 252.44426796 154.75639901 251.50098911 163.87109375 250.56079102 C170.13367207 249.91478625 176.39605484 249.26691928 182.65822947 248.61701256 C185.9301743 248.27750823 189.20222775 247.93912045 192.47446823 247.60247612 C199.5360739 246.87575011 206.5951804 246.13027921 213.65203094 245.35871506 C217.03820222 244.99590686 220.42639517 244.65903032 223.81524658 244.32229614 C225.96761641 244.09113235 228.11986479 243.85883415 230.27197266 243.62524414 C231.24073523 243.53560363 232.2094978 243.44596312 233.20761681 243.35360622 C240.91156223 242.47533001 246.68569754 239.86108081 251.875 234 C255.55677794 228.80219586 256.325718 224.58627564 256.234375 218.29296875 C256.22823181 217.54790573 256.22208862 216.80284271 256.21575928 216.03520203 C256.08039395 207.73842622 255.19788576 199.5485883 254.25 191.3125 C254.0645127 189.63560818 253.88005008 187.95860275 253.6965332 186.28149414 C253.31882664 182.83791516 252.93690411 179.39484844 252.55126953 175.95214844 C251.81316022 169.34633334 251.11202391 162.73675421 250.41763306 156.1262207 C250.18271354 153.89197753 249.94623747 151.65790231 249.7097168 149.42382812 C248.4848111 137.81371707 247.31211953 126.19852265 246.14750481 114.58224487 C244.65901064 99.73757676 243.14760422 84.89533413 241.62066174 70.05457306 C241.16685996 65.63946947 240.71962062 61.22374582 240.27587891 56.80761719 C239.75862912 51.67403089 239.22169841 46.54295749 238.66574097 41.41342163 C238.47458896 39.62122364 238.29040211 37.82826659 238.11380005 36.03457642 C237.08843958 25.67241873 236.16240345 17.48315514 228 10.125 C222.85334866 6.4794553 218.6716867 5.66845291 212.43847656 5.75366211 C211.696572 5.75958091 210.95466743 5.76549971 210.19028091 5.77159786 C201.0696569 5.92477423 192.04264857 6.93577456 182.984375 7.94140625 C181.06615465 8.14742826 179.14784234 8.35259562 177.22944641 8.55697632 C173.16958134 8.9910906 169.11034483 9.43052594 165.05154419 9.8744812 C158.68428907 10.5708701 152.31581943 11.25562598 145.94702148 11.93774414 C144.88324374 12.05170375 143.819466 12.16566336 142.72345257 12.28307629 C140.57242403 12.5135041 138.42139222 12.74390133 136.27035713 12.97426796 C133.04163031 13.32045601 129.81303162 13.66781854 126.5844574 14.01542664 C113.47326112 15.42548767 100.35890992 16.7977764 87.23828125 18.1171875 C86.44631474 18.19689474 85.65434822 18.27660198 84.83838272 18.35872459 C78.18522707 19.02778921 71.53170843 19.69316998 64.87756348 20.35232544 C57.39092671 21.0943536 49.90630069 21.85214118 42.42462158 22.64276123 C40.12403429 22.88274657 37.82269212 23.11559323 35.52069092 23.34161377 C32.21843743 23.6678109 28.91994713 24.02014704 25.62109375 24.37890625 C24.65849136 24.46832993 23.69588898 24.5577536 22.70411682 24.64988708 C14.96849293 25.53757454 9.18759224 28.16307757 4.125 34.1875 C3.42375 35.115625 2.7225 36.04375 2 37 C1.34 37.66 0.68 38.32 0 39 C0 26.13 0 13.26 0 0 Z " fill="#FDFDFE" transform="translate(0,0)"/>
<path d="M0 0 C7.59 0 15.18 0 23 0 C31.51534392 24.27440707 39.97738459 48.55766903 48 73 C49.91168574 70.13247139 50.83032307 67.87771112 51.90771484 64.63330078 C52.2750473 63.5343045 52.64237976 62.43530823 53.02084351 61.30300903 C53.41357452 60.11246918 53.80630554 58.92192932 54.2109375 57.6953125 C54.62034576 56.46521454 55.02975403 55.23511658 55.4515686 53.96774292 C56.32006432 51.35765136 57.18560766 48.7466065 58.04882812 46.13476562 C59.142929 42.82446336 60.24206705 39.51586465 61.34322166 36.20790291 C62.40517155 33.01682846 63.46432418 29.82482961 64.5234375 26.6328125 C65.10646133 24.87736618 65.10646133 24.87736618 65.70126343 23.0864563 C68.23498233 15.42014856 70.64750714 7.72389579 73 0 C80.59 0 88.18 0 96 0 C92.96054558 8.62057207 89.91864948 17.24027534 86.87411499 25.85905457 C84.84782562 31.5962471 82.82492419 37.33462554 80.80345154 43.07351685 C79.32082732 47.28080394 77.83589056 51.48727282 76.35055542 55.69360352 C75.62805154 57.74112859 74.90644426 59.78897031 74.18582153 61.8371582 C69.32803392 75.64172482 64.25795254 89.34229145 59 103 C51.74 103 44.48 103 37 103 C31.88047843 91.29099522 27.77712371 79.24433188 23.5625 67.1875 C21.96410578 62.63085416 20.36310012 58.07512804 18.76171875 53.51953125 C18.36225037 52.38229614 17.96278198 51.24506104 17.5512085 50.07336426 C13.12317218 37.48060903 8.60357382 24.92107836 4.06469727 12.36791992 C3.78708054 11.59837479 3.50946381 10.82882965 3.22343445 10.03596497 C2.70866335 8.60917453 2.19255962 7.18286392 1.67488098 5.75712585 C0 1.11255802 0 1.11255802 0 0 Z " fill="#FDFDFE" transform="translate(80,80)"/>
<path d="M0 0 C0.33 0 0.66 0 1 0 C1.05375793 0.54202057 1.10751587 1.08404114 1.16290283 1.64248657 C4.55045593 35.83235114 4.55045593 35.83235114 8.10186768 70.00546265 C9.2604785 80.88761833 10.38977614 91.77260017 11.50135422 102.65965271 C11.73502043 104.9477263 11.96898176 107.23576953 12.20303345 109.52380371 C12.36078326 111.06616165 12.5185286 112.60852005 12.67626953 114.15087891 C12.75484507 114.91914883 12.8334206 115.68741875 12.91437721 116.47896957 C13.3825708 121.05899427 13.84871089 125.63922248 14.31342316 130.21960163 C14.60837873 133.12192582 14.90527518 136.02404938 15.20261383 138.92613029 C15.40611858 140.91832724 15.6072518 142.910766 15.80828857 144.9032135 C16.59331091 152.54810945 17.5312226 160.15130672 18.61825562 167.75794983 C18.94701663 170.5500268 19.07630934 173.1941118 19 176 C10.73370621 175.70582584 5.94873742 174.94873742 0 169 C-0.24609566 166.11456871 -0.24609566 166.11456871 -0.24050903 162.34359741 C-0.24221788 161.65176821 -0.24392673 160.95993901 -0.24568737 160.2471453 C-0.24899429 157.9177522 -0.23795905 155.58864411 -0.22705078 153.25927734 C-0.22648693 151.59397895 -0.22680272 149.92868006 -0.22793579 148.26338196 C-0.22851131 143.73260991 -0.2167249 139.20194304 -0.20278788 134.67119551 C-0.19031359 129.93995155 -0.18911263 125.20870537 -0.18673706 120.47744751 C-0.18051256 111.51370945 -0.16408865 102.55001998 -0.14403808 93.58630335 C-0.12170922 83.38331401 -0.11069324 73.18032239 -0.10064721 62.97731471 C-0.07972324 41.98484932 -0.04452847 20.99242772 0 0 Z " fill="#D9DEFD" transform="translate(0,67)"/>
<path d="M0 0 C8.40834603 0.2992294 13.39224656 1.2023648 19.375 7.5 C23.83865178 17.11401921 20.36456205 30.90664419 19.28515625 41.2421875 C19.10771773 42.98181429 18.9307601 44.72149019 18.7542572 46.46121216 C18.38549342 50.08390372 18.01283382 53.70616405 17.63696289 57.328125 C17.15624858 61.96086225 16.68252558 66.59427951 16.21134281 71.22799492 C15.75926261 75.6704807 15.30352704 80.1125894 14.84765625 84.5546875 C14.76173784 85.39527584 14.67581944 86.23586418 14.58729744 87.1019249 C14.3428556 89.48727229 14.09578978 91.87233293 13.84790039 94.25732422 C13.77668976 94.95560837 13.70547913 95.65389252 13.6321106 96.37333679 C13.22304719 100.27783667 12.68670632 104.13470723 12 108 C11.67 108 11.34 108 11 108 C10.92118591 107.21328415 10.84237183 106.4265683 10.76116943 105.61601257 C9.76112494 95.63947003 8.75688017 85.6633548 7.75 75.6875 C7.63042498 74.50226179 7.63042498 74.50226179 7.5084343 73.29307938 C5.48862723 53.27985917 3.46154152 33.27029564 1.06738281 13.29760742 C0.92268555 12.08435791 0.77798828 10.8711084 0.62890625 9.62109375 C0.50588135 8.6148999 0.38285645 7.60870605 0.25610352 6.57202148 C0 4 0 4 0 0 Z " fill="#D9DEFD" transform="translate(237,25)"/>
<path d="M0 0 C1.25549149 0.12606125 2.51098297 0.2521225 3.80451965 0.38200378 C6.45293682 0.64908477 9.10101031 0.91833872 11.7487793 1.19165039 C15.71263502 1.60073501 19.67755453 1.99887136 23.64257812 2.39648438 C39.6455506 4.01352513 55.62077512 5.80608871 71.58203125 7.79296875 C71.58203125 8.12296875 71.58203125 8.45296875 71.58203125 8.79296875 C70.7953154 8.87178284 70.00859955 8.95059692 69.19804382 9.03179932 C59.22150128 10.03184381 49.24538605 11.03608858 39.26953125 12.04296875 C38.08429304 12.16254377 38.08429304 12.16254377 36.87511063 12.28453445 C16.86189042 14.30434152 -3.14767311 16.33142723 -23.12036133 18.72558594 C-24.33361084 18.8702832 -25.54686035 19.01498047 -26.796875 19.1640625 C-27.80306885 19.2870874 -28.8092627 19.4101123 -29.84594727 19.53686523 C-32.41796875 19.79296875 -32.41796875 19.79296875 -36.41796875 19.79296875 C-36.11873935 11.38462272 -35.21560395 6.40072219 -28.91796875 0.41796875 C-20.42755843 -3.52400747 -9.07039216 -0.94283135 0 0 Z " fill="#D9DEFD" transform="translate(55.41796875,5.20703125)"/>
<path d="M0 0 C0.34617686 5.53882983 -0.22029068 10.10730131 -3 15 C-5.90231577 18.13450103 -9.04791787 20.87252216 -13.41860962 21.15794373 C-22.923347 21.19388173 -32.21504957 20.31661359 -41.6484375 19.28515625 C-43.31696743 19.10763129 -44.98555804 18.93067578 -46.65420532 18.7542572 C-51.00858443 18.292204 -55.36202476 17.82182213 -59.71533203 17.34979248 C-63.26682689 16.96616649 -66.81895487 16.58861009 -70.37112999 16.21134281 C-74.63045284 15.75883876 -78.88948417 15.30362367 -83.1484375 14.84765625 C-84.35322313 14.71877864 -84.35322313 14.71877864 -85.58234787 14.58729744 C-87.86674295 14.34227209 -90.15093214 14.09541598 -92.43505859 13.84790039 C-94.37812393 13.6380526 -94.37812393 13.6380526 -96.36044312 13.42396545 C-99.91939107 13.00938999 -103.45579143 12.52335093 -107 12 C-107 11.67 -107 11.34 -107 11 C-105.94336655 10.89168854 -104.88673309 10.78337708 -103.79808044 10.67178345 C-93.78081163 9.64464983 -83.76379349 8.61510129 -73.74700832 7.58326149 C-68.59879428 7.05301486 -63.45049926 6.5235835 -58.30200195 5.99609375 C-53.32212635 5.48584851 -48.34248608 4.97335935 -43.36299324 4.45939255 C-41.47474237 4.26487676 -39.58641167 4.07113412 -37.69799614 3.87822342 C-27.78847276 2.86539417 -17.90859617 1.78642232 -8.04896545 0.36141968 C-5.32644874 0.03869673 -2.73717261 -0.07072199 0 0 Z " fill="#DADEFD" transform="translate(237,243)"/>
<path d="M0 0 C0.33 0 0.66 0 1 0 C1.06041977 0.61085953 1.12083954 1.22171906 1.18309021 1.85108948 C1.8140116 8.226835 2.44704925 14.60236792 3.08129883 20.9777832 C3.31751564 23.35500828 3.55319848 25.73228648 3.78833008 28.10961914 C4.12700223 31.53285711 4.46761392 34.95589747 4.80859375 38.37890625 C4.96490517 39.9652462 4.96490517 39.9652462 5.12437439 41.58363342 C5.53066324 45.64744229 5.9524988 49.68353283 6.55883789 53.72314453 C8.89114001 71.04697356 5.8916318 88.96709131 4 106.1875 C3.70889565 108.8949655 3.42081937 111.60275036 3.1328125 114.31054688 C2.43232136 120.87485571 1.72068668 127.43787931 1 134 C0.67 134 0.34 134 0 134 C0 89.78 0 45.56 0 0 Z " fill="#FAFAFE" transform="translate(0,67)"/>
</svg>
